<svg version="1.1" id="Layer_1" xmlns="http://www.w3.org/2000/svg" xmlns:xlink="http://www.w3.org/1999/xlink" x="0px" y="0px"
	 width="100%" viewBox="0 0 616 642" enable-background="new 0 0 616 642" xml:space="preserve">
<path fill="#000000" opacity="1.000000" stroke="none" 
	d="
M406.000000,643.000000 
	C270.666687,643.000000 135.833374,643.000000 1.000054,643.000000 
	C1.000036,429.000061 1.000036,215.000122 1.000018,1.000140 
	C206.333237,1.000094 411.666473,1.000094 616.999756,1.000047 
	C616.999878,214.999863 616.999878,428.999725 616.999939,642.999756 
	C546.833313,643.000000 476.666656,643.000000 406.000000,643.000000 
M159.000000,480.500000 
	C159.000000,490.999207 158.999878,501.498444 159.000046,511.997650 
	C159.000153,519.571777 161.378876,521.997681 168.839783,521.998596 
	C198.170837,522.002075 227.502274,521.917358 256.832703,522.053223 
	C265.016266,522.091125 266.720673,519.827454 266.927979,511.633820 
	C267.022491,507.899048 266.056854,504.142578 266.083374,500.399597 
	C266.117004,495.652191 266.916077,490.909729 266.940399,486.162872 
	C266.973999,479.612762 264.172211,477.010040 257.686310,477.004150 
	C243.187454,476.990906 228.688553,477.001526 214.189682,476.999359 
	C206.882874,476.998260 206.000763,476.122711 206.000671,468.858246 
	C205.999603,384.364807 205.999847,299.871368 206.000336,215.377914 
	C206.000381,208.761047 207.738998,207.009583 214.396606,207.003860 
	C228.895477,206.991379 243.394348,207.001617 257.893219,206.999313 
	C265.214081,206.998138 266.950500,205.360092 266.988739,198.200348 
	C267.035889,189.367813 267.029694,180.534698 266.989563,171.702087 
	C266.962830,165.816345 264.134338,163.002426 258.359711,163.001724 
	C228.362045,162.998016 198.364365,162.999420 168.366699,163.000397 
	C160.755554,163.000656 159.000244,164.786224 159.000214,172.523804 
	C158.999893,274.849213 159.000000,377.174591 159.000000,480.500000 
M453.996765,414.647949 
	C453.815979,406.101257 452.947266,397.492126 453.715088,389.031525 
	C454.168060,384.040161 456.401642,378.724823 459.277344,374.548767 
	C464.004486,367.684113 471.927612,365.976593 479.767853,365.041443 
	C485.309265,364.380493 486.993774,362.831665 486.997803,357.467407 
	C487.005432,347.302917 487.002014,337.138458 486.999268,326.973969 
	C486.997650,320.906616 484.741272,318.691010 478.637329,317.963806 
	C464.799347,316.315277 457.795837,311.537537 453.924988,296.317902 
	C450.984253,284.755585 453.279480,273.324005 454.134125,261.883392 
	C455.008118,250.183060 457.172150,238.570267 457.837128,226.866074 
	C458.331207,218.169281 457.870667,209.325500 456.867584,200.659210 
	C455.532318,189.122910 450.306641,179.649200 440.427002,172.719162 
	C428.521576,164.368118 414.782898,163.273697 401.165863,162.168411 
	C390.736847,161.321884 380.183472,161.930237 369.686462,162.019089 
	C358.595367,162.112961 358.000000,162.772614 358.000000,173.641907 
	C358.000000,183.306488 357.991547,192.971085 358.009186,202.635635 
	C358.011780,204.069519 358.137146,205.503174 358.195099,206.715378 
	C368.144836,205.787445 377.761719,203.912735 387.302368,204.242584 
	C399.879974,204.677368 408.265991,208.070877 409.804749,224.023743 
	C410.589294,232.157333 409.649292,240.518463 408.911774,248.724884 
	C407.385529,265.708313 402.993134,282.409210 404.917816,299.729187 
	C406.773926,316.431915 413.879181,329.206970 429.687225,336.273041 
	C433.539581,337.995056 437.389893,339.721649 441.429871,341.530640 
	C440.762146,342.490753 440.574371,343.038422 440.200714,343.237793 
	C439.509918,343.606567 438.657135,343.670898 437.964111,344.036835 
	C431.188538,347.615143 423.619141,350.253296 417.853424,355.053955 
	C408.327484,362.985443 404.510986,374.521362 404.191040,386.609375 
	C403.927063,396.583527 405.049866,406.633240 406.104523,416.591583 
	C406.991394,424.965332 409.154907,433.215393 409.845917,441.595001 
	C410.471405,449.179962 410.849487,457.033936 409.575134,464.467316 
	C407.767426,475.011719 392.727936,482.276245 381.299377,479.797913 
	C373.770203,478.165222 366.020508,477.549622 358.000488,476.426941 
	C358.000488,489.864258 357.942230,502.171997 358.031891,514.478638 
	C358.063568,518.825623 360.613190,520.970459 364.869873,520.985962 
	C376.205322,521.027283 387.571716,521.516235 398.867340,520.844238 
	C408.715393,520.258362 418.628387,518.978577 428.248474,516.825195 
	C438.820923,514.458679 447.156799,508.434357 452.314728,498.354187 
	C456.096619,490.963287 458.020325,483.275391 458.015045,475.058472 
	C458.008759,465.236359 458.367706,455.382050 457.698975,445.601135 
	C457.011963,435.553070 455.276428,425.576721 453.996765,414.647949 
z"/>
<path fill="#FFFFFF" opacity="1.000000" stroke="none" 
	d="
M159.000000,480.000000 
	C159.000000,377.174591 158.999893,274.849213 159.000214,172.523804 
	C159.000244,164.786224 160.755554,163.000656 168.366699,163.000397 
	C198.364365,162.999420 228.362045,162.998016 258.359711,163.001724 
	C264.134338,163.002426 266.962830,165.816345 266.989563,171.702087 
	C267.029694,180.534698 267.035889,189.367813 266.988739,198.200348 
	C266.950500,205.360092 265.214081,206.998138 257.893219,206.999313 
	C243.394348,207.001617 228.895477,206.991379 214.396606,207.003860 
	C207.738998,207.009583 206.000381,208.761047 206.000336,215.377914 
	C205.999847,299.871368 205.999603,384.364807 206.000671,468.858246 
	C206.000763,476.122711 206.882874,476.998260 214.189682,476.999359 
	C228.688553,477.001526 243.187454,476.990906 257.686310,477.004150 
	C264.172211,477.010040 266.973999,479.612762 266.940399,486.162872 
	C266.916077,490.909729 266.117004,495.652191 266.083374,500.399597 
	C266.056854,504.142578 267.022491,507.899048 266.927979,511.633820 
	C266.720673,519.827454 265.016266,522.091125 256.832703,522.053223 
	C227.502274,521.917358 198.170837,522.002075 168.839783,521.998596 
	C161.378876,521.997681 159.000153,519.571777 159.000046,511.997650 
	C158.999878,501.498444 159.000000,490.999207 159.000000,480.000000 
z"/>
<path fill="#FFFFFF" opacity="1.000000" stroke="none" 
	d="
M453.998260,415.108459 
	C455.276428,425.576721 457.011963,435.553070 457.698975,445.601135 
	C458.367706,455.382050 458.008759,465.236359 458.015045,475.058472 
	C458.020325,483.275391 456.096619,490.963287 452.314728,498.354187 
	C447.156799,508.434357 438.820923,514.458679 428.248474,516.825195 
	C418.628387,518.978577 408.715393,520.258362 398.867340,520.844238 
	C387.571716,521.516235 376.205322,521.027283 364.869873,520.985962 
	C360.613190,520.970459 358.063568,518.825623 358.031891,514.478638 
	C357.942230,502.171997 358.000488,489.864258 358.000488,476.426941 
	C366.020508,477.549622 373.770203,478.165222 381.299377,479.797913 
	C392.727936,482.276245 407.767426,475.011719 409.575134,464.467316 
	C410.849487,457.033936 410.471405,449.179962 409.845917,441.595001 
	C409.154907,433.215393 406.991394,424.965332 406.104523,416.591583 
	C405.049866,406.633240 403.927063,396.583527 404.191040,386.609375 
	C404.510986,374.521362 408.327484,362.985443 417.853424,355.053955 
	C423.619141,350.253296 431.188538,347.615143 437.964111,344.036835 
	C438.657135,343.670898 439.509918,343.606567 440.200714,343.237793 
	C440.574371,343.038422 440.762146,342.490753 441.429871,341.530640 
	C437.389893,339.721649 433.539581,337.995056 429.687225,336.273041 
	C413.879181,329.206970 406.773926,316.431915 404.917816,299.729187 
	C402.993134,282.409210 407.385529,265.708313 408.911774,248.724884 
	C409.649292,240.518463 410.589294,232.157333 409.804749,224.023743 
	C408.265991,208.070877 399.879974,204.677368 387.302368,204.242584 
	C377.761719,203.912735 368.144836,205.787445 358.195099,206.715378 
	C358.137146,205.503174 358.011780,204.069519 358.009186,202.635635 
	C357.991547,192.971085 358.000000,183.306488 358.000000,173.641907 
	C358.000000,162.772614 358.595367,162.112961 369.686462,162.019089 
	C380.183472,161.930237 390.736847,161.321884 401.165863,162.168411 
	C414.782898,163.273697 428.521576,164.368118 440.427002,172.719162 
	C450.306641,179.649200 455.532318,189.122910 456.867584,200.659210 
	C457.870667,209.325500 458.331207,218.169281 457.837128,226.866074 
	C457.172150,238.570267 455.008118,250.183060 454.134125,261.883392 
	C453.279480,273.324005 450.984253,284.755585 453.924988,296.317902 
	C457.795837,311.537537 464.799347,316.315277 478.637329,317.963806 
	C484.741272,318.691010 486.997650,320.906616 486.999268,326.973969 
	C487.002014,337.138458 487.005432,347.302917 486.997803,357.467407 
	C486.993774,362.831665 485.309265,364.380493 479.767853,365.041443 
	C471.927612,365.976593 464.004486,367.684113 459.277344,374.548767 
	C456.401642,378.724823 454.168060,384.040161 453.715088,389.031525 
	C452.947266,397.492126 453.815979,406.101257 453.998260,415.108459 
z"/>
</svg>