<svg version="1.1" id="Layer_1" xmlns="http://www.w3.org/2000/svg" xmlns:xlink="http://www.w3.org/1999/xlink" x="0px" y="0px"
	 width="100%" viewBox="0 0 384 400" enable-background="new 0 0 384 400" xml:space="preserve">
<path fill="#000000" opacity="1.000000" stroke="none" 
	d="
M141.999878,324.359070 
	C129.006348,324.353424 116.510536,324.209900 104.020599,324.418549 
	C99.843933,324.488312 98.624054,323.017761 98.629547,318.939148 
	C98.724953,248.142609 98.727226,177.345886 98.623421,106.549377 
	C98.617317,102.384712 100.034409,101.014122 104.085968,101.039932 
	C122.742081,101.158775 141.400116,101.162048 160.055847,101.008972 
	C164.250534,100.974548 165.605042,102.582047 165.412827,106.626999 
	C165.152191,112.111794 165.119492,117.630684 165.419495,123.111389 
	C165.654144,127.398003 163.887924,128.510391 159.887650,128.412262 
	C150.731308,128.187622 141.561920,128.497971 132.405396,128.276978 
	C128.447739,128.181473 127.273773,129.576965 127.281433,133.477829 
	C127.385132,186.283615 127.383949,239.089706 127.283699,291.895508 
	C127.276215,295.837799 128.606522,297.176178 132.488113,297.099670 
	C141.646210,296.919128 150.813599,297.200928 159.971191,297.008423 
	C164.088501,296.921906 165.605377,298.397400 165.415665,302.534607 
	C165.141205,308.519165 165.269974,314.526001 165.353683,320.521545 
	C165.392288,323.286072 164.236298,324.395020 161.488754,324.359528 
	C155.160187,324.277771 148.829620,324.349304 141.999878,324.359070 
z"/>
<path fill="#000000" opacity="1.000000" stroke="none" 
	d="
M251.715668,177.121002 
	C252.884628,166.903000 254.063416,157.164871 255.186249,147.420288 
	C255.433243,145.276749 255.699341,143.098572 255.583878,140.956436 
	C255.062042,131.275253 250.518967,126.938232 240.795990,126.379517 
	C234.965714,126.044495 229.348801,128.161240 222.731216,127.930496 
	C222.731216,119.762177 222.692825,111.825645 222.753845,103.889885 
	C222.772980,101.399483 224.805435,100.981972 226.644531,100.941185 
	C239.115967,100.664536 251.627167,99.738602 263.941650,102.740089 
	C276.789032,105.871452 283.409973,114.405159 284.447723,127.590027 
	C285.504395,141.015411 283.379456,154.116364 281.793121,167.309250 
	C281.056519,173.435043 280.618866,179.598831 282.359802,185.649750 
	C284.544586,193.243317 289.050568,197.117371 297.011627,197.623154 
	C301.411987,197.902725 303.268585,199.517273 303.038116,204.066116 
	C302.734924,210.051483 302.992493,216.063370 302.880585,222.061447 
	C302.847931,223.812286 302.983032,225.908173 300.423828,226.313889 
	C293.277954,227.446762 286.115204,228.363464 283.149994,236.681473 
	C280.653442,243.684845 281.003326,250.732040 281.972565,257.873840 
	C283.470978,268.914551 285.093201,279.946411 285.192444,291.119873 
	C285.211609,293.279236 285.089935,295.459198 284.803284,297.598846 
	C282.570496,314.264221 275.091522,320.813080 257.498657,323.361481 
	C247.542618,324.803680 237.563965,324.279266 227.575714,324.053650 
	C224.107895,323.975342 222.463791,322.878967 222.596420,319.053589 
	C222.848190,311.792664 222.669342,304.516785 222.669342,296.679626 
	C227.337128,297.252289 231.137543,297.473389 234.826218,298.235474 
	C239.082367,299.114777 243.166992,298.416809 247.167816,297.357910 
	C252.696365,295.894592 255.709427,290.969696 255.569870,283.039062 
	C255.397064,273.217499 253.226547,263.577057 252.232208,253.826050 
	C251.127304,242.990738 250.284042,232.107834 257.948792,222.851852 
	C262.656006,217.167404 269.419922,215.141235 276.813110,212.693222 
	C274.214294,211.715927 272.329681,210.958939 270.413055,210.294235 
	C257.740204,205.899216 252.295349,196.455261 251.750534,183.597305 
	C251.665924,181.600662 251.717026,179.598297 251.715668,177.121002 
z"/>
</svg>